<?xml version="1.0" encoding="utf-8"?>
<!-- Generator: Adobe Illustrator 27.4.0, SVG Export Plug-In . SVG Version: 6.00 Build 0)  -->
<svg version="1.1" id="Слой_1" xmlns="http://www.w3.org/2000/svg" xmlns:xlink="http://www.w3.org/1999/xlink" x="0px" y="0px"
	 viewBox="0 0 1857 1924.45" style="enable-background:new 0 0 1857 1924.45;" xml:space="preserve">
<style type="text/css">
	.st0{fill:#AF0505;}
</style>
<g>
	<polygon class="st0" points="237.86,469.19 582.55,799.16 805.34,799.16 332.44,1257.34 490.07,1257.34 948.25,799.16 
		620.38,471.29 	"/>
	<polygon class="st0" points="1009.21,757.13 1551.11,215.23 1425.35,215.23 950.88,689.7 	"/>
	<polygon class="st0" points="884.5,630.32 825.65,571.47 1165.44,231.69 1290.84,231.69 	"/>
	<polygon points="331.04,1273.46 801.83,1464.02 579.05,1464.02 249.77,1601.33 629.49,1601.33 948.25,1465.42 480.97,1273.46 	"/>
	<polygon points="824.25,1566.3 880.3,1539.68 1281.03,1709.22 1173.14,1709.22 	"/>
	<polygon points="948.25,1514.46 1002.2,1483.63 1545.85,1709.22 1418.35,1709.22 	"/>
</g>
</svg>
