<?xml version="1.0" encoding="UTF-8"?>
<svg id="_Слой_1" data-name="Слой 1" xmlns="http://www.w3.org/2000/svg" viewBox="0 0 2802.94 1286.98">
  <defs>
    <style>
      .cls-1 {
        fill: #fff;
      }

      .cls-2 {
        fill: #af0505;
      }
    </style>
  </defs>
  <g>
    <path class="cls-1" d="m1389,1108.59h73.19c10.46,44.84,20.88,89.47,31.29,134.1l2.06.69c1.71-2.49,3.59-4.88,5.12-7.47,23.6-39.84,47.32-79.61,70.58-119.66,3.7-6.38,7.85-8.7,15.05-8.43,13.64.52,27.32.11,40.98.16,3.23.01,6.46.35,10.79.6-10.5,59.38-20.81,117.69-31.08,175.82-7.1,2.98-41.84,3.54-53.61.65,4.92-35.78,12.58-71.29,18.29-107.08-.75-.31-1.49-.61-2.24-.92-1.89,2.93-3.89,5.8-5.66,8.8-18.33,30.96-36.81,61.84-54.77,93.01-3.49,6.06-7.48,8.44-14.25,8.06-7.9-.45-15.84-.11-24.26-.11-8.86-37.55-17.47-74.01-26.08-110.46-.84.05-1.69.09-2.53.14-6.52,36.42-13.04,72.84-19.65,109.74h-53.59c1.14-7.21,2.07-13.65,3.19-20.06,7.71-43.96,15.29-87.95,23.34-131.84,1.42-7.74,1.29-14.39-3.93-20.56-.97-1.14-1.26-2.85-2.23-5.18Z"/>
    <path class="cls-1" d="m204.53,1180.9c-6.25,35.48-12.34,70.09-18.52,105.21H0c.43-4.04.59-7.25,1.14-10.4,8.26-46.89,16.46-93.79,24.99-140.63,1.44-7.92,1.96-15.1-4.01-21.43-.82-.87-1.02-2.32-1.89-4.44,2.98-.46,5.43-1.15,7.87-1.16,42.96-.07,85.92,0,128.88-.15,5.07-.02,8.9,1.5,12.31,5.2,4.74,5.14,9.62,10.18,14.84,14.83,4.42,3.95,5.86,7.93,4.51,14.01-2.65,11.96-4.25,24.15-6.52,37.65,7.71.45,14.43.84,22.42,1.3Zm-58.84,28.69h-78.95c-2.67,15.83-5.23,31.06-7.99,47.43,4.58.34,7.77.74,10.97.79,6.32.09,12.64-.04,18.96-.05,13.64,0,27.27,0,40.91.03,3.78,0,7.53,0,8.4-4.92,2.49-13.99,4.98-27.98,7.71-43.28Zm-18.07-30.03c2.39-13.94,5.71-27.32,6.92-42.01-19.19-.19-36.94-1.09-55.28.39-2.33,14.13-4.52,27.43-6.86,41.62h55.22Z"/>
    <path class="cls-1" d="m539.66,1286.4c-18.05.44-35.46,1.17-53.74-.37,1.64-9.89,3.04-18.73,4.59-27.54,7.34-41.65,14.56-83.33,22.23-124.92,1.37-7.4,1.27-13.73-3.97-19.49-1-1.11-1.32-2.83-2.43-5.36,4.15-.29,7.32-.71,10.5-.71,49.3-.04,98.6.06,147.89-.13,6.13-.02,10.92,1.4,14.95,6.15,3.44,4.05,7.11,8.05,11.28,11.31,6.87,5.36,8.23,11.44,6.62,20.02-8.36,44.5-16.04,89.14-23.99,133.72-.4,2.24-1.19,4.4-1.95,7.13h-52.02c.48-5.25.59-9.77,1.35-14.18,3.06-17.72,6.35-35.41,9.5-53.12.5-2.83.72-5.71,1.17-9.38h-78.07c-4.56,25.22-9.15,50.59-13.9,76.87Zm19.03-106.12c27.12-.13,52.55.09,78.41-.18,2.39-13.46,4.57-25.55,6.65-37.67.21-1.23-.17-2.57-.27-3.69-7.61-2.62-66.85-2.94-77.68-.25-2.23,13.1-4.54,26.67-7.11,41.79Z"/>
    <path class="cls-1" d="m2361.26,1107.95c5.43,0,9.02,0,12.61,0,48.28,0,96.55.14,144.83-.14,7.25-.04,12.8,1.62,17.46,7.31,3.57,4.36,7.67,8.38,12,11.98,5.25,4.36,6.42,9.28,5.15,15.89-4.54,23.53-8.64,47.14-12.83,70.73-3.84,21.63-7.55,43.27-11.36,64.9-.4,2.27-1.14,4.48-1.93,7.54-3.19.23-6.43.65-9.67.66-45.61.05-91.22-.04-136.84.16-6.47.03-11.5-1.6-15.8-6.6-4.11-4.78-8.65-9.27-13.45-13.37-4.59-3.92-5.81-8.17-4.72-14.08,5.68-30.77,11.02-61.6,16.49-92.41,1.57-8.85,2.96-17.74,4.83-26.52,1.53-7.15,1.84-13.79-3.7-19.56-1.05-1.09-1.39-2.85-3.07-6.48Zm60.87,29.36c-6.09,20.31-21,111.94-19.58,119.86,2.11.2,4.38.6,6.65.61,20.32.03,40.63.05,60.95-.07,8.55-.05,8.69-.21,10.22-8.77,5.3-29.83,10.52-59.68,15.75-89.53,1.19-6.79,2.27-13.61,3.7-22.24-26.73.19-52.15,0-77.69.14Z"/>
    <path class="cls-1" d="m1812.95,1284.69c1.89-11.29,3.77-23.04,5.84-34.76,6.89-39.04,13.8-78.09,20.85-117.1,1.18-6.52,1.38-12.51-3.45-17.82-1.24-1.36-1.78-3.37-3.1-6.01,3.34-.41,5.81-.97,8.29-.98,46.32-.06,92.64,0,138.96-.12,5-.01,8.92,1.21,12.39,5,5.4,5.89,11.44,11.2,16.79,17.13,1.79,1.99,3.57,5.35,3.18,7.72-3.84,22.98-8.14,45.88-12.33,68.8-.05.29-.38.54-1.57,2.15h-36.09c1.51,4.34,2.17,7.07,3.37,9.54,9.31,19.18,18.74,38.31,28.09,57.47,1.41,2.89,2.6,5.89,4.26,9.69-3.23.6-5.37,1.32-7.52,1.34-12.66.12-25.33-.16-37.99.19-5.98.17-8.83-2.53-11.23-7.64-9.36-19.9-19.44-39.46-28.56-59.46-3.63-7.96-7.94-12.51-17.27-11.11-4.83.72-9.87.13-15.51.13-2.23,11.99-4.37,23.04-6.33,34.12-2.15,12.14-4.21,24.29-6.12,36.47-.62,3.94-1.48,7.33-6.37,7.29-15.31-.11-30.62-.25-45.93-.44-.56,0-1.11-.65-2.63-1.6Zm79.61-146.84c-2.33,14-4.58,27.51-6.95,41.69h65.44c2.75-14.02,5.35-27.45,7.2-41.69h-65.7Z"/>
    <path class="cls-1" d="m2789.21,1286.07c-5.28.38-8.21.76-11.14.78-11.32.07-22.65-.23-33.96.12-6.06.19-9.64-1.71-12.31-7.5-9.22-19.94-19.42-39.44-28.41-59.47-3.82-8.51-8.72-12.6-18.17-11.25-4.52.64-9.2.11-14.8.11-4.61,25.86-9.08,50.96-13.51,75.79-8.1,2.87-44.55,3.13-54.22.33,2.12-12.3,4.21-24.7,6.41-37.09,6.8-38.35,13.61-76.7,20.51-115.03,1.17-6.48,1.38-12.52-3.49-17.82-1.25-1.36-1.78-3.38-3.11-6.04,3.31-.41,5.77-.98,8.23-.98,46.29-.05,92.58.03,138.87-.13,5.45-.02,9.53,1.62,13.18,5.58,5.19,5.63,10.69,10.97,16.13,16.36,2.48,2.46,4.05,4.9,3.35,8.77-4.06,22.26-7.9,44.57-11.84,66.85-.11.61-.63,1.14-1.76,3.08-11.16.23-23.17.47-37.23.76,12.75,26.26,24.56,50.59,37.27,76.77Zm-48.81-106.59c4.1-12.36,7.52-34.97,6.2-42.21-19.7,0-39.59-.04-59.48.03-4.48.01-4.99,3.45-5.55,6.89-1.56,9.51-3.31,18.99-4.83,28.5-.34,2.12-.05,4.35-.05,6.79h63.71Z"/>
    <path class="cls-1" d="m2096.67,1107.97c5.35,0,8.93,0,12.51,0,43.99,0,87.99.11,131.98-.13,7.49-.04,13.45,1.5,18.38,7.59,4.17,5.16,9.28,9.55,14.02,14.24,2.45,2.42,4.27,4.84,3.56,8.74-4.06,22.29-7.94,44.61-11.91,66.91-.11.61-.59,1.16-1.31,2.54-11.15,2.87-23.26-.53-36.49,1.99,1.22,3.33,2.03,6.32,3.35,9.06,9.17,18.89,18.45,37.71,27.66,56.58,1.43,2.93,2.68,5.94,4.5,10.01-3.4.57-5.82,1.31-8.24,1.34-12.33.12-24.67-.18-36.99.15-5.82.16-9.01-2.02-11.48-7.31-9.61-20.52-19.95-40.7-29.36-61.31-3.27-7.16-7.45-10.37-15.28-9.58-5.22.53-10.54.1-16.71.1-1.84,9.92-3.58,18.96-5.19,28.03-2.5,14.1-5.04,28.2-7.28,42.35-.79,5.03-2.68,7.79-8.24,7.69-13.99-.24-27.99-.14-41.99-.25-1.25-.01-2.5-.58-4.63-1.11.38-3.75.52-7.32,1.13-10.81,8.36-47.24,16.68-94.49,25.29-141.69,1.28-7,1.11-13.12-3.87-18.61-1.06-1.17-1.54-2.85-3.43-6.5Zm126.09,30.98c-11.42-2.57-58.47-2.22-65.97.34-2.16,12.98-4.37,26.24-6.8,40.85,22.66-.1,43.96.68,65.67-.51,2.48-14.19,4.75-27.18,7.1-40.67Z"/>
    <path class="cls-1" d="m1152.75,1108.65h53.43c-4.06,23.72-7.97,46.58-12.09,70.71,7.51.56,14.23,1.05,22.28,1.65-6.15,35.23-12.19,69.83-18.35,105.08h-53.66c4.41-25.55,8.67-50.29,13.09-75.88-3.28-.53-5.77-1.28-8.25-1.29-20.66-.1-41.33-.11-61.99-.03-8.13.03-8.21.23-9.57,8.11-3.51,20.36-6.97,40.73-10.51,61.08-1.41,8.1-2.05,8.69-10.38,8.77-12.33.11-24.66.05-37-.05-2.25-.02-4.5-.56-7.77-.99.91-6.3,1.6-12.13,2.62-17.91,7.85-44.63,15.57-89.29,23.84-133.84,1.45-7.83,1.1-14.36-4.22-20.39-.82-.93-1.11-2.31-2.32-4.94,21.52-1.45,42.15-.53,64.01-.68-1.92,24.55-8.57,47.27-10.86,72.15,18.44.05,35.92.12,54.58-.13,4.42-24.03,8.72-47.45,13.13-71.42Z"/>
    <path class="cls-1" d="m901.96,1161.58c.74-4.44,1.33-7.95,1.91-11.47.59-3.57,1.17-7.15,1.74-10.62-7.1-2.64-59.38-3.59-78.14-1.42-7.29,38.93-14.09,78.37-20.69,118.85,4.13.38,7,.87,9.87.88,19.65.05,39.31.04,58.96-.04,9.15-.04,9.16-.13,10.89-9.01,1.26-6.48,2.5-12.97,3.85-20h53.64c-3.41,19.45-6.69,38.2-10.07,57.5-4.48.23-8.08.58-11.68.58-44.97.04-89.95-.08-134.92.14-6.81.03-12.18-1.44-16.68-6.83-3.83-4.58-8.11-8.9-12.74-12.67-5.4-4.4-6.12-9.34-4.92-15.89,7.13-38.98,13.79-78.06,20.88-117.05,1.37-7.53,1.87-14.43-3.77-20.53-1-1.08-1.31-2.8-2.37-5.18,3.79-.34,6.63-.81,9.47-.81,49.97-.05,99.94.03,149.91-.15,5.84-.02,10.15,1.75,13.97,6.04,4.2,4.72,8.55,9.42,13.43,13.41,5.42,4.44,6.12,9.52,4.98,15.97-3.32,18.88-3.15,18.91-22.75,18.9-8,0-15.99.07-23.99,0-3.24-.03-6.49-.36-10.8-.61Z"/>
    <path class="cls-1" d="m414.72,1257.86c-1.99,10.63-3.56,19.03-5.08,27.17-7.76,2.2-136.16,2.6-148.01.42.29-3.31.34-6.84.95-10.27,8.32-47.2,16.62-94.41,25.21-141.56,1.33-7.31,1.32-13.77-3.93-19.56-.99-1.1-1.29-2.82-1.94-4.34,8.71-2.18,53.48-2.4,64.05-.18-8.57,48.89-17.15,97.85-25.99,148.32h94.74Z"/>
    <path class="cls-1" d="m1703.88,1108.68h63.58c-.22,3.47-.13,6.67-.67,9.75-9.29,52.77-18.64,105.53-28,158.28-1.79,10.07-1.82,10.09-12.05,10.14-10.65.05-21.31.08-31.96.01-3.24-.02-6.48-.38-10.82-.65.51-4.31.75-7.83,1.36-11.28,8.18-46.55,16.28-93.11,24.74-139.61,1.51-8.28,2.02-15.76-4.36-22.24-.64-.65-.77-1.8-1.81-4.39Z"/>
  </g>
  <g>
    <polygon class="cls-2" points="964.41 169.04 1193.84 388.68 1342.13 388.68 1027.37 693.65 1132.29 693.65 1437.26 388.68 1219.02 170.44 964.41 169.04"/>
    <polygon class="cls-2" points="1477.83 360.7 1838.53 0 1754.82 0 1439.01 315.81 1477.83 360.7"/>
    <polygon class="cls-2" points="1394.83 276.29 1355.66 237.12 1581.82 10.96 1665.29 10.96 1394.83 276.29"/>
    <polygon points="1026.43 704.38 1339.8 831.21 1191.51 831.21 972.34 922.61 1225.09 922.61 1437.26 832.15 1126.23 704.38 1026.43 704.38"/>
    <polygon points="1354.72 899.3 1392.03 881.58 1658.76 994.43 1586.95 994.43 1354.72 899.3"/>
    <polygon points="1437.26 864.79 1473.17 844.27 1835.03 994.43 1750.16 994.43 1437.26 864.79"/>
  </g>
</svg>