<?xml version="1.0" encoding="UTF-8"?>
<svg id="_Слой_1" data-name="Слой 1" xmlns="http://www.w3.org/2000/svg" viewBox="0 0 3921.15 250.67">
  <defs>
    <style>
      .cls-1 {
        fill: #fff;
      }
    </style>
  </defs>
  <path class="cls-1" d="m1943.13,1.1h102.39c14.64,62.73,29.21,125.16,43.78,187.59l2.88.97c2.4-3.48,5.02-6.83,7.16-10.45,33.02-55.73,66.2-111.38,98.73-167.39,5.18-8.92,10.98-12.17,21.05-11.79,19.08.72,38.21.15,57.32.23,4.52.02,9.04.49,15.1.85-14.69,83.07-29.11,164.64-43.48,245.95-9.94,4.17-58.53,4.96-75,.91,6.88-50.05,17.61-99.73,25.58-149.8-1.04-.43-2.09-.86-3.13-1.29-2.65,4.1-5.44,8.12-7.92,12.31-25.64,43.31-51.49,86.51-76.62,130.12-4.89,8.48-10.47,11.81-19.93,11.27-11.05-.63-22.16-.15-33.93-.15-12.4-52.53-24.44-103.53-36.48-154.53-1.18.07-2.36.13-3.54.2-9.12,50.95-18.24,101.89-27.49,153.52h-74.97c1.6-10.08,2.9-19.1,4.47-28.06,10.78-61.5,21.38-123.03,32.66-184.44,1.99-10.83,1.8-20.14-5.5-28.76-1.35-1.6-1.76-3.99-3.12-7.25Z"/>
  <path class="cls-1" d="m286.13,102.26c-8.74,49.64-17.26,98.06-25.91,147.18H0c.61-5.65.82-10.15,1.6-14.55C13.15,169.3,24.62,103.69,36.55,38.16c2.02-11.09,2.74-21.12-5.61-29.97-1.15-1.21-1.42-3.25-2.64-6.21,4.18-.64,7.59-1.61,11.01-1.62,60.1-.1,120.2,0,180.3-.21,7.09-.02,12.45,2.1,17.22,7.28,6.63,7.19,13.46,14.24,20.75,20.74,6.19,5.52,8.19,11.1,6.31,19.61-3.71,16.73-5.95,33.79-9.12,52.67,10.78.63,20.19,1.17,31.36,1.82Zm-82.31,40.14h-110.45c-3.73,22.15-7.32,43.45-11.18,66.35,6.41.48,10.87,1.04,15.34,1.1,8.84.12,17.68-.06,26.52-.06,19.08,0,38.15,0,57.23.04,5.29,0,10.53,0,11.75-6.89,3.49-19.57,6.97-39.14,10.78-60.54Zm-25.28-42.01c3.34-19.5,7.99-38.21,9.68-58.77-26.84-.27-51.68-1.52-77.34.55-3.26,19.76-6.33,38.37-9.6,58.22h77.26Z"/>
  <path class="cls-1" d="m754.95,249.85c-25.25.62-49.61,1.63-75.18-.52,2.3-13.84,4.25-26.2,6.42-38.53,10.27-58.27,20.37-116.58,31.1-174.76,1.91-10.35,1.77-19.2-5.55-27.27-1.4-1.55-1.85-3.96-3.4-7.5,5.8-.41,10.24-.99,14.68-.99,68.96-.05,137.93.09,206.89-.18,8.57-.03,15.27,1.96,20.91,8.6,4.81,5.67,9.94,11.26,15.77,15.82,9.6,7.5,11.51,16,9.26,28.01-11.69,62.26-22.43,124.7-33.56,187.06-.56,3.13-1.67,6.16-2.73,9.98h-72.78c.67-7.34.82-13.67,1.89-19.84,4.29-24.79,8.88-49.53,13.29-74.3.7-3.96,1.01-7.98,1.64-13.12h-109.22c-6.38,35.28-12.8,70.77-19.45,107.54Zm26.62-148.46c37.94-.17,73.51.13,109.69-.25,3.34-18.83,6.39-35.75,9.3-52.69.3-1.72-.24-3.59-.38-5.17-10.65-3.67-93.53-4.12-108.66-.35-3.12,18.32-6.35,37.31-9.95,58.46Z"/>
  <path class="cls-1" d="m3303.26.21c7.6,0,12.62,0,17.65,0,67.53,0,135.07.19,202.6-.19,10.14-.06,17.91,2.26,24.43,10.22,4.99,6.09,10.73,11.72,16.79,16.76,7.34,6.1,8.98,12.98,7.2,22.22-6.35,32.91-12.09,65.94-17.95,98.95-5.37,30.25-10.56,60.54-15.9,90.79-.56,3.18-1.59,6.27-2.71,10.55-4.46.32-8.99.91-13.53.92-63.81.07-127.62-.05-191.43.22-9.04.04-16.09-2.23-22.11-9.23-5.75-6.69-12.1-12.97-18.81-18.7-6.42-5.48-8.13-11.43-6.6-19.7,7.94-43.05,15.42-86.18,23.07-129.28,2.2-12.38,4.14-24.82,6.76-37.11,2.14-10.01,2.58-19.29-5.18-27.37-1.46-1.52-1.95-3.98-4.3-9.06Zm85.15,41.07c-8.53,28.41-29.38,156.59-27.38,167.68,2.95.28,6.13.85,9.3.85,28.42.04,56.84.06,85.27-.1,11.95-.07,12.16-.29,14.29-12.26,7.42-41.74,14.72-83.49,22.03-125.25,1.66-9.5,3.17-19.03,5.17-31.11-37.39.26-72.96,0-108.68.19Z"/>
  <path class="cls-1" d="m2536.2,247.47c2.64-15.8,5.27-32.24,8.16-48.63,9.64-54.62,19.3-109.24,29.16-163.82,1.65-9.12,1.93-17.51-4.83-24.92-1.74-1.91-2.49-4.72-4.34-8.41,4.67-.57,8.13-1.36,11.59-1.37,64.8-.08,129.6,0,194.4-.17,7-.02,12.48,1.69,17.34,7,7.55,8.24,16,15.66,23.48,23.96,2.5,2.78,5,7.49,4.44,10.8-5.37,32.15-11.39,64.18-17.25,96.24-.08.41-.53.75-2.19,3.01h-50.48c2.11,6.07,3.03,9.89,4.71,13.35,13.02,26.83,26.22,53.59,39.3,80.4,1.97,4.04,3.63,8.24,5.96,13.55-4.51.84-7.51,1.85-10.52,1.88-17.71.17-35.44-.23-53.14.27-8.36.23-12.35-3.53-15.71-10.69-13.09-27.84-27.2-55.2-39.95-83.18-5.08-11.14-11.11-17.49-24.17-15.54-6.76,1.01-13.8.18-21.7.18-3.12,16.77-6.12,32.23-8.86,47.73-3,16.98-5.89,33.98-8.57,51.01-.87,5.52-2.07,10.25-8.91,10.2-21.42-.15-42.84-.35-64.25-.61-.78,0-1.55-.91-3.68-2.24Zm111.36-205.42c-3.26,19.58-6.41,38.48-9.72,58.32h91.55c3.84-19.61,7.48-38.4,10.07-58.32h-91.91Z"/>
  <path class="cls-1" d="m3901.93,249.4c-7.39.54-11.49,1.06-15.59,1.09-15.84.1-31.69-.32-47.51.17-8.48.26-13.48-2.39-17.23-10.5-12.9-27.9-27.16-55.17-39.74-83.2-5.34-11.9-12.2-17.62-25.42-15.74-6.32.9-12.87.15-20.7.15-6.45,36.18-12.7,71.29-18.89,106.03-11.34,4.01-62.33,4.38-75.84.46,2.97-17.2,5.9-34.56,8.97-51.89,9.52-53.65,19.04-107.3,28.7-160.92,1.63-9.07,1.92-17.52-4.88-24.92-1.75-1.9-2.49-4.73-4.35-8.45,4.63-.57,8.07-1.36,11.52-1.37,64.76-.07,129.51.04,194.26-.18,7.62-.03,13.34,2.27,18.44,7.81,7.25,7.88,14.96,15.35,22.57,22.89,3.47,3.43,5.67,6.85,4.68,12.27-5.68,31.15-11.05,62.35-16.57,93.53-.15.85-.88,1.6-2.46,4.32-15.61.32-32.42.66-52.08,1.06,17.83,36.74,34.35,70.78,52.13,107.4Zm-68.28-149.11c5.74-17.29,10.51-48.92,8.68-59.04-27.57,0-55.38-.05-83.2.04-6.27.02-6.98,4.83-7.77,9.64-2.18,13.3-4.63,26.56-6.76,39.87-.48,2.97-.07,6.09-.07,9.49h89.12Z"/>
  <path class="cls-1" d="m2933.12.23c7.48,0,12.49,0,17.5,0,61.54,0,123.09.16,184.63-.18,10.48-.06,18.82,2.09,25.71,10.61,5.83,7.21,12.98,13.36,19.61,19.93,3.42,3.39,5.97,6.77,4.98,12.22-5.68,31.18-11.1,62.4-16.66,93.6-.15.86-.82,1.63-1.84,3.55-15.6,4.02-32.54-.74-51.04,2.79,1.7,4.66,2.83,8.84,4.69,12.67,12.82,26.42,25.81,52.76,38.7,79.15,2,4.1,3.75,8.32,6.3,14-4.76.8-8.14,1.84-11.53,1.87-17.25.17-34.51-.25-51.75.21-8.15.22-12.6-2.83-16.07-10.22-13.44-28.71-27.91-56.94-41.07-85.77-4.57-10.01-10.42-14.51-21.37-13.4-7.3.74-14.74.14-23.37.14-2.58,13.88-5.01,26.53-7.26,39.21-3.5,19.73-7.05,39.46-10.18,59.25-1.11,7.03-3.76,10.89-11.53,10.76-19.58-.34-39.16-.2-58.74-.35-1.75-.01-3.5-.82-6.47-1.56.53-5.25.72-10.25,1.59-15.12,11.69-66.09,23.34-132.19,35.38-198.22,1.79-9.79,1.55-18.35-5.42-26.03-1.48-1.63-2.16-3.99-4.8-9.09Zm176.4,43.34c-15.98-3.6-81.8-3.11-92.29.47-3.02,18.15-6.11,36.71-9.52,57.14,31.7-.15,61.5.96,91.87-.72,3.47-19.85,6.64-38.02,9.94-56.9Z"/>
  <path class="cls-1" d="m1612.63,1.19h74.75c-5.68,33.19-11.14,65.16-16.92,98.92,10.51.78,19.91,1.47,31.16,2.31-8.61,49.29-17.06,97.69-25.67,147h-75.07c6.17-35.75,12.13-70.35,18.31-106.15-4.59-.75-8.07-1.79-11.54-1.8-28.91-.13-57.82-.16-86.72-.04-11.37.05-11.49.33-13.39,11.34-4.91,28.48-9.75,56.97-14.71,85.44-1.97,11.32-2.87,12.16-14.52,12.26-17.25.15-34.5.07-51.75-.07-3.15-.02-6.29-.78-10.86-1.39,1.28-8.81,2.24-16.97,3.66-25.05,10.98-62.44,21.78-124.91,33.35-187.24,2.03-10.96,1.53-20.09-5.9-28.52-1.14-1.3-1.56-3.24-3.24-6.91,30.1-2.03,58.97-.75,89.54-.95-2.69,34.34-11.99,66.13-15.19,100.94,25.8.07,50.25.17,76.35-.18,6.18-33.62,12.21-66.39,18.37-99.92Z"/>
  <path class="cls-1" d="m1261.79,75.24c1.03-6.21,1.86-11.13,2.67-16.05.83-5,1.64-10,2.44-14.85-9.94-3.69-83.06-5.03-109.31-1.98-10.2,54.47-19.71,109.64-28.94,166.27,5.78.54,9.79,1.22,13.81,1.23,27.5.07,54.99.06,82.49-.05,12.8-.05,12.81-.18,15.23-12.61,1.77-9.07,3.5-18.15,5.39-27.97h75.04c-4.76,27.21-9.36,53.43-14.09,80.44-6.27.32-11.31.81-16.34.81-62.92.05-125.83-.11-188.75.2-9.53.05-17.04-2.02-23.33-9.56-5.35-6.41-11.35-12.45-17.82-17.72-7.56-6.15-8.55-13.07-6.88-22.23,9.98-54.54,19.29-109.19,29.21-163.74,1.91-10.53,2.61-20.18-5.27-28.72-1.4-1.51-1.84-3.91-3.31-7.24,5.3-.47,9.28-1.13,13.25-1.13,69.91-.07,139.81.05,209.72-.22,8.17-.03,14.19,2.45,19.54,8.45,5.88,6.6,11.96,13.17,18.78,18.75,7.59,6.21,8.56,13.31,6.97,22.35-4.65,26.41-4.4,26.45-31.83,26.45-11.19,0-22.37.09-33.55-.01-4.54-.04-9.08-.5-15.11-.86Z"/>
  <path class="cls-1" d="m580.18,209.92c-2.78,14.86-4.98,26.63-7.1,38.01-10.86,3.07-190.48,3.64-207.05.59.41-4.63.48-9.57,1.32-14.37,11.64-66.03,23.25-132.07,35.27-198.04,1.86-10.22,1.84-19.26-5.5-27.36-1.39-1.53-1.8-3.95-2.71-6.08,12.19-3.05,74.82-3.36,89.61-.26-11.99,68.4-23.99,136.89-36.36,207.5h132.53Z"/>
  <path class="cls-1" d="m2383.63,1.24h88.95c-.31,4.86-.18,9.32-.94,13.64-12.99,73.82-26.08,147.63-39.17,221.43-2.5,14.09-2.55,14.12-16.86,14.18-14.9.07-29.8.11-44.71.02-4.53-.03-9.06-.53-15.14-.91.71-6.02,1.05-10.95,1.9-15.78,11.44-65.12,22.77-130.26,34.61-195.31,2.11-11.58,2.83-22.04-6.1-31.12-.9-.91-1.08-2.52-2.53-6.14Z"/>
</svg>